<svg width="59" height="58" fill="none" xmlns="http://www.w3.org/2000/svg"><path d="M19.094 13.533c-1.96 0-3.33 1.16-3.33 2.9s1.37 2.9 3.33 2.9c2.155 0 3.33-1.16 3.33-2.9-.195-1.74-1.37-2.9-3.33-2.9zM16.351 40.6h5.29V21.847h-5.29V40.6zm20.375-19.333c-3.135 0-5.29 1.546-6.073 2.706l-.392-1.933h-4.702v18.753h5.29V29.58c0-.58 0-1.16.195-1.353.392-.967 1.764-2.127 3.33-2.127 2.156 0 3.527 1.547 3.527 4.06v10.827h5.29v-11.6c0-5.8-2.743-8.12-6.465-8.12zM.09 29c0-16.047 13.126-29 29.386-29 16.26 0 29.387 12.953 29.387 29S45.738 58 29.477 58C13.217 58 .091 45.047.091 29z" fill="#fff"/></svg>